HIERARCHY
ROOT root
{
	OFFSET 0.000000 0.000000 0.000000
	CHANNELS 6 Xposition Yposition Zposition Zrotation Yrotation Xrotation
	JOINT lhip
	{
		OFFSET 0.058581 -0.082280 -0.017664
		CHANNELS 3 Zrotation Yrotation Xrotation
		JOINT lknee
		{
			OFFSET 0.043451 -0.386469 0.008037
			CHANNELS 3 Zrotation Yrotation Xrotation
			JOINT lankle
			{
				OFFSET -0.014790 -0.426874 -0.037428
				CHANNELS 3 Zrotation Yrotation Xrotation
				JOINT ltoe
				{
					OFFSET 0.041054 -0.060286 0.122042
					CHANNELS 3 Zrotation Yrotation Xrotation
					End Site
					{
						OFFSET 0.000000 0.000000 0.000000
					}
				}
			}
		}
	}
	JOINT rhip
	{
		OFFSET -0.060310 -0.090513 -0.013543
		CHANNELS 3 Zrotation Yrotation Xrotation
		JOINT rknee
		{
			OFFSET -0.043257 -0.383688 -0.004843
			CHANNELS 3 Zrotation Yrotation Xrotation
			JOINT rankle
			{
				OFFSET 0.019056 -0.420046 -0.034562
				CHANNELS 3 Zrotation Yrotation Xrotation
				JOINT rtoe
				{
					OFFSET -0.034840 -0.062106 0.130323
					CHANNELS 3 Zrotation Yrotation Xrotation
					End Site
					{
						OFFSET 0.000000 0.000000 0.000000
					}
				}
			}
		}
	}
	JOINT lowerback
	{
		OFFSET 0.004439 0.124404 -0.038385
		CHANNELS 3 Zrotation Yrotation Xrotation
		JOINT upperback
		{
			OFFSET 0.004488 0.137956 0.026820
			CHANNELS 3 Zrotation Yrotation Xrotation
			JOINT chest
			{
				OFFSET -0.002265 0.056032 0.002855
				CHANNELS 3 Zrotation Yrotation Xrotation
				JOINT lowerneck
				{
					OFFSET -0.013390 0.211636 -0.033468
					CHANNELS 3 Zrotation Yrotation Xrotation
					JOINT upperneck
					{
						OFFSET 0.010113 0.088937 0.050410
						CHANNELS 3 Zrotation Yrotation Xrotation
						End Site
						{
							OFFSET 0.000000 0.000000 0.000000
						}
					}
				}
				JOINT lclavicle
				{
					OFFSET 0.071702 0.114000 -0.018898
					CHANNELS 3 Zrotation Yrotation Xrotation
					JOINT lshoulder
					{
						OFFSET 0.122921 0.045205 -0.019046
						CHANNELS 3 Zrotation Yrotation Xrotation
						JOINT lelbow
						{
							OFFSET 0.255332 -0.015649 -0.022946
							CHANNELS 3 Zrotation Yrotation Xrotation
							JOINT lwrist
							{
								OFFSET 0.265709 0.012698 -0.007375
								CHANNELS 3 Zrotation Yrotation Xrotation
								End Site
								{
									OFFSET 0.000000 0.000000 0.000000
								}
							}
						}
					}
				}
				JOINT rclavicle
				{
					OFFSET -0.082954 0.112472 -0.023707
					CHANNELS 3 Zrotation Yrotation Xrotation
					JOINT rshoulder
					{
						OFFSET -0.113228 0.046853 -0.008472
						CHANNELS 3 Zrotation Yrotation Xrotation
						JOINT relbow
						{
							OFFSET -0.260127 -0.014369 -0.031269
							CHANNELS 3 Zrotation Yrotation Xrotation
							JOINT rwrist
							{
								OFFSET -0.269108 0.006794 -0.006027
								CHANNELS 3 Zrotation Yrotation Xrotation
								End Site
								{
									OFFSET 0.000000 0.000000 0.000000
								}
							}
						}
					}
				}
			}
		}
	}
}
MOTION
Frames: 11
Frame Time: 0.033333
0.444579 0.811061 1.469581 108.939866 -4.304002 89.743610 4.343315 -11.745469 -14.295541 -1.645902 -12.175744 19.881635 -6.958677 3.746811 24.286084 0.000000 -0.000000 0.000000 6.756886 -3.456073 -9.116997 0.162629 -8.612261 27.112479 12.728533 -3.296929 39.607703 0.000000 -0.000000 0.000000 -4.639301 4.626200 13.849254 2.733470 -2.308252 0.112469 1.693452 -2.296809 2.982732 -3.189459 0.522910 8.546554 9.841107 3.486158 4.620184 -25.645092 -3.434636 2.693343 -60.413433 -11.465426 27.400619 -89.840501 -78.735562 111.507775 7.835359 -12.083430 -23.088846 21.973411 -1.768938 0.516233 61.299879 -5.719395 22.399171 59.688539 86.490309 79.522061 1.925332 12.098017 -22.898434 
0.450422 0.812112 1.489235 128.004257 -5.650896 88.221826 5.222666 -10.965859 -16.636991 -2.200929 -10.038088 22.530424 -6.430406 3.365547 20.930612 0.000000 -0.000000 0.000000 6.029296 -3.528273 -8.338141 0.662201 -6.897344 26.033112 16.934975 -1.416755 41.677114 0.000000 -0.000000 0.000000 -4.093403 4.064213 14.690020 3.345470 -3.674828 0.670868 1.734143 -3.227218 3.547889 -3.249147 0.919038 7.954843 9.930834 3.340461 4.953487 -24.859375 -4.377921 2.821767 -59.073805 -12.683221 26.792677 -96.840482 -78.540230 118.157140 8.597447 -12.486707 -22.513939 21.763148 -2.731634 0.293655 59.970977 -7.114000 21.826972 67.422760 85.747728 86.344034 0.877021 12.298662 -23.777363 
0.458375 0.814023 1.496651 144.244323 -6.855588 85.965478 5.868329 -10.594411 -17.783999 -2.428826 -9.472062 26.044169 -3.286414 4.738946 16.199143 0.000000 -0.000000 0.000000 6.067364 -1.411950 -8.829149 1.218399 -3.323907 27.480382 15.822864 -2.859918 37.966822 0.000000 -0.000000 0.000000 -4.625221 3.023365 16.510261 3.656592 -3.713880 0.244757 2.074085 -3.324029 4.406287 -2.454936 0.370577 6.426833 9.765344 2.947984 6.082863 -23.699110 -2.460403 1.534173 -55.804505 -12.735359 26.511111 -109.479750 -76.274058 128.386968 10.203994 -11.716042 -24.637101 21.874554 -2.947601 -0.718548 59.026429 -7.409307 23.758941 53.892822 85.551138 69.789126 2.029012 11.301408 -22.337618 
0.466636 0.815760 1.493817 158.970930 -8.282103 84.033340 6.886841 -11.180261 -19.515776 -2.908584 -7.654244 29.705598 -2.268176 6.656405 14.498742 0.000000 -0.000000 0.000000 4.777778 -0.806501 -9.980427 0.862050 -1.284965 28.541473 15.052621 -3.332160 35.811202 0.000000 -0.000000 0.000000 -5.211899 3.197993 17.574993 4.113704 -4.048169 -0.083059 2.140459 -3.664075 4.629012 -1.906828 1.081352 6.308863 9.440661 2.183324 5.888183 -21.663348 -1.439163 1.446394 -50.159588 -12.476581 24.585102 -121.162479 -73.620818 139.510318 10.154714 -12.806010 -26.081811 21.957275 -2.475247 -1.713147 58.230272 -6.633414 25.022945 49.833620 84.961868 65.432042 2.029640 10.832264 -20.624144 
0.477698 0.818712 1.479751 171.414109 -9.588439 82.347326 8.971807 -9.705872 -21.601162 -3.646540 -4.754332 33.356264 -3.455447 7.308081 13.683219 0.000000 -0.000000 0.000000 3.248691 -0.349465 -10.645351 -0.116634 2.055155 28.456048 15.052393 -2.422343 33.597973 0.000000 -0.000000 0.000000 -6.071470 4.101426 17.608971 4.178696 -3.829821 0.209020 1.939581 -3.385017 4.481238 -1.862398 2.105996 6.632927 9.478180 1.479892 5.483410 -18.925206 -1.216415 1.720801 -43.650789 -10.983829 22.513526 -129.386884 -72.510553 146.284465 11.666327 -12.459470 -26.651460 22.121469 -1.858537 -2.422588 57.727392 -5.871906 25.563594 50.356530 84.888582 64.353241 2.009435 10.768418 -20.576522 
0.488011 0.825600 1.453179 -177.045700 -11.057198 80.995499 10.541542 -8.226124 -25.084515 -4.552633 -3.561923 39.249360 -1.088663 8.716588 10.509365 0.000000 -0.000000 0.000000 0.652999 -0.408478 -11.302711 -0.467522 5.676337 28.640107 15.016948 -3.446109 31.423132 0.000000 -0.000000 0.000000 -7.333242 5.122579 17.527076 3.974015 -3.415836 -0.894812 1.658429 -3.198644 5.561994 -1.812954 2.436852 5.480158 9.345544 0.563995 6.094702 -16.030243 0.853262 1.417186 -36.588535 -10.006569 19.892252 -131.756770 -70.961830 146.783594 12.489928 -12.486066 -28.876218 22.092201 -2.306511 -3.664267 56.900384 -5.340678 26.723298 58.506502 85.918094 71.773035 3.426145 10.772947 -20.367098 
0.496134 0.836073 1.415301 -165.857448 -11.891546 79.655007 12.736244 -7.116255 -29.386003 -4.270213 -0.090109 45.728669 0.064015 10.573048 8.995131 0.000000 -0.000000 0.000000 -1.877553 -0.802724 -10.800110 -0.885205 8.926910 27.794832 15.899278 -3.756006 31.456124 0.000000 -0.000000 0.000000 -8.129783 6.170673 16.802916 4.087168 -3.535814 -1.569742 1.341311 -2.852955 6.416263 -1.627447 2.975806 4.612571 9.159955 -0.587179 6.434117 -12.775321 2.954303 1.307661 -31.134998 -8.281472 17.403910 -132.966509 -69.900691 146.267018 13.428369 -13.449534 -28.852058 21.123106 -3.327433 -4.911523 56.844755 -5.615135 27.593974 69.155455 86.702604 82.033494 4.069573 10.176126 -18.488969 
0.502267 0.849647 1.365734 -155.158283 -12.416473 78.441639 15.374525 -5.546912 -34.280341 -3.826243 4.528828 52.422295 0.284504 11.540894 9.552196 0.000000 -0.000000 0.000000 -4.401735 -1.426351 -8.864391 -1.184810 12.761392 25.292338 16.005740 -3.475234 31.416968 0.000000 -0.000000 0.000000 -9.250204 7.307652 15.567470 4.148513 -3.814041 -2.144797 1.300504 -2.233478 7.178208 -1.794284 3.183155 4.435254 9.444815 -1.255330 6.168134 -9.402084 5.240351 1.714794 -26.307373 -6.563206 15.282304 -135.775057 -68.225164 147.361468 14.590454 -13.308582 -30.966705 19.738142 -4.911749 -5.280492 56.767519 -6.443165 27.859145 92.364212 86.864928 104.698930 5.183348 10.496880 -19.407653 
0.505402 0.866810 1.305427 -145.104533 -12.770450 77.622061 17.962667 -3.681782 -39.520083 -3.356225 9.387057 59.972821 -0.095257 12.274612 9.452031 0.000000 -0.000000 0.000000 -6.339346 -1.334490 -5.959424 -1.959739 16.344535 22.146906 14.805805 -3.155076 29.726051 0.000000 -0.000000 0.000000 -10.819716 9.056052 12.666804 4.259323 -3.968520 -2.381165 1.129945 -1.935576 8.396557 -1.999880 3.528792 4.648914 9.768943 -2.043406 5.571603 -5.777902 7.818490 2.284070 -22.851099 -5.011598 13.022840 -137.635770 -66.521784 147.844334 16.735345 -12.678628 -32.576089 17.918120 -7.382241 -5.278177 57.668872 -7.903059 27.791801 106.593812 86.086970 119.011481 3.869886 10.041962 -20.983414 
0.505259 0.884628 1.235064 -133.888761 -12.623430 76.544541 19.960543 -3.542640 -45.115080 -4.201700 13.023594 67.887839 -0.273529 12.200466 10.038428 0.000000 -0.000000 0.000000 -7.510841 -0.739014 -2.365482 -2.299289 17.967348 20.382709 11.562159 -4.871083 27.069956 0.000000 -0.000000 0.000000 -12.822851 10.288243 10.460428 4.461204 -4.386494 -3.379634 1.073236 -1.882558 9.923184 -2.203584 3.485365 4.232661 10.035656 -2.552778 5.422093 -2.872637 10.431455 2.572715 -19.777376 -3.999091 11.795722 -140.344890 -64.661924 149.869451 17.117992 -12.840692 -34.389947 16.816019 -10.838103 -6.090113 57.907571 -10.270349 28.187137 122.137623 84.930436 135.701981 5.688751 10.113993 -19.768771 
0.502525 0.901458 1.154697 -122.564641 -11.559850 75.125403 20.726630 -4.087765 -49.822306 -4.699168 15.378983 76.473123 -0.426315 10.945409 10.583792 0.000000 -0.000000 0.000000 -6.865263 -0.788521 0.532373 -2.011090 17.509773 20.126196 10.284346 -5.005010 29.853483 0.000000 -0.000000 0.000000 -14.285586 11.596614 9.100646 4.864951 -4.940784 -4.179738 0.967275 -2.125787 10.922154 -2.855872 3.237283 5.037249 10.663970 -2.294992 4.150530 -0.917881 11.915246 3.955832 -18.969167 -2.755758 10.851528 -143.090049 -63.711451 152.300825 17.904702 -12.021323 -36.261929 15.452240 -13.459875 -5.564827 58.513671 -13.361592 27.347377 133.074448 82.929459 148.004982 6.246255 10.214395 -23.381705 
